<?xml version="1.0" encoding="utf-8"?>
<!-- Generator: Adobe Illustrator 16.0.0, SVG Export Plug-In . SVG Version: 6.00 Build 0)  -->
<!DOCTYPE svg PUBLIC "-//W3C//DTD SVG 1.1//EN" "http://www.w3.org/Graphics/SVG/1.1/DTD/svg11.dtd">
<svg version="1.1" id="Layer_1" xmlns="http://www.w3.org/2000/svg" xmlns:xlink="http://www.w3.org/1999/xlink" x="0px" y="0px"
	 width="480px" height="480px" viewBox="0 0 480 480" enable-background="new 0 0 480 480" xml:space="preserve">
<g>
	<rect x="2.2856" y="162.2856" fill="#231F20" width="35.4287" height="155.4282"/>
	<path fill="#231F20" d="M35.4287,164.5713v150.8574H4.5713V164.5713H35.4287 M40,160H0v160h40V160L40,160z"/>
</g>
<g>
	<rect x="41.6162" y="321.6162" fill="#231F20" width="36.7676" height="76.7676"/>
	<path fill="#231F20" d="M76.7676,323.2324v73.5352H43.2324v-73.5352H76.7676 M80,320H40v80h40V320L80,320z"/>
</g>
<g>
	<rect x="41.6162" y="81.6162" fill="#231F20" width="36.7676" height="76.7676"/>
	<path fill="#231F20" d="M76.7676,83.2324v73.5352H43.2324V83.2324H76.7676 M80,80H40v80h40V80L80,80z"/>
</g>
<g>
	<rect x="401.6162" y="321.6162" fill="#231F20" width="36.7676" height="76.7676"/>
	<path fill="#231F20" d="M436.7676,323.2324v73.5352h-33.5352v-73.5352H436.7676 M440,320h-40v80h40V320L440,320z"/>
</g>
<g>
	<rect x="401.6162" y="81.6162" fill="#231F20" width="36.7676" height="76.7676"/>
	<path fill="#231F20" d="M436.7676,83.2324v73.5352h-33.5352V83.2324H436.7676 M440,80h-40v80h40V80L440,80z"/>
</g>
<g>
	<rect x="162.2856" y="2.2856" fill="#231F20" width="155.4282" height="35.4287"/>
	<path fill="#231F20" d="M315.4287,4.5713v30.8574H164.5713V4.5713H315.4287 M320,0H160v40h160V0L320,0z"/>
</g>
<g>
	<rect x="162.2856" y="442.2852" fill="#231F20" width="155.4282" height="35.4297"/>
	<path fill="#231F20" d="M315.4287,444.5713v30.8574H164.5713v-30.8574H315.4287 M320,440H160v40h160V440L320,440z"/>
</g>
<g>
	<rect x="81.6162" y="401.6162" fill="#231F20" width="76.7676" height="36.7676"/>
	<path fill="#231F20" d="M156.7676,403.2324v33.5352H83.2324v-33.5352H156.7676 M160,400H80v40h80V400L160,400z"/>
</g>
<g>
	<rect x="81.6162" y="41.6162" fill="#231F20" width="76.7676" height="36.7676"/>
	<path fill="#231F20" d="M156.7676,43.2324v33.5352H83.2324V43.2324H156.7676 M160,40H80v40h80V40L160,40z"/>
</g>
<g>
	<polygon fill="#FDEA00" points="160,79.9502 160.0498,40 200,40.0498 199.9502,79.9502 	"/>
	<g>
		<path fill="#FDEA00" d="M199.8999,40.1001v39.7998h-39.7998V40.1001H199.8999 M200,40h-40v40h40V40L200,40z"/>
	</g>
</g>
<g>
	<polygon fill="#FDEB00" points="200,119.9502 200.0498,80 240,80.0498 239.9502,119.9502 	"/>
	<g>
		<path fill="#FDEB00" d="M239.8999,80.1001v39.7998h-39.7998V80.1001H239.8999 M240,80h-40v40h40V80L240,80z"/>
	</g>
</g>
<g>
	<polygon fill="#FBC700" points="240,119.9502 240.0498,80 280,80.0498 279.9502,119.9502 	"/>
	<g>
		<path fill="#FBC700" d="M279.9004,80.1001v39.7998h-39.8003V80.1001H279.9004 M280,80h-40v40h40V80L280,80z"/>
	</g>
</g>
<g>
	<polygon fill="#F79A00" points="280,119.9502 280.0498,80 320,80.0498 319.9502,119.9502 	"/>
	<g>
		<path fill="#F79A00" d="M319.9004,80.1001v39.7998h-39.8008V80.1001H319.9004 M320,80h-40v40h40V80L320,80z"/>
	</g>
</g>
<g>
	<polygon fill="#F27205" points="320,119.9502 320.0498,80 360,80.0498 359.9502,119.9502 	"/>
	<g>
		<path fill="#F27205" d="M359.9004,80.1001v39.7998h-39.8008V80.1001H359.9004 M360,80h-40v40h40V80L360,80z"/>
	</g>
</g>
<g>
	<polygon fill="#F34C0E" points="360,119.9502 360.0498,80 400,80.0498 399.9502,119.9502 	"/>
	<g>
		<path fill="#F34C0E" d="M399.9004,80.1001v39.7998h-39.8008V80.1001H399.9004 M400,80h-40v40h40V80L400,80z"/>
	</g>
</g>
<g>
	<polygon fill="#F9F070" points="80,119.9502 80.0498,80 120,80.0498 119.9502,119.9502 	"/>
	<g>
		<path fill="#F9F070" d="M119.8999,80.1001v39.7998H80.1001V80.1001H119.8999 M120,80H80v40h40V80L120,80z"/>
	</g>
</g>
<g>
	<polygon fill="#FAF6A9" points="80,159.9502 80.0498,120 120,120.0498 119.9502,159.9502 	"/>
	<g>
		<path fill="#FAF6A9" d="M119.8999,120.1001v39.7998H80.1001v-39.7998H119.8999 M120,120H80v40h40V120L120,120z"/>
	</g>
</g>
<g>
	<polygon fill="#FBF06F" points="80,199.9502 80.0498,160 120,160.0498 119.9502,199.9502 	"/>
	<g>
		<path fill="#FBF06F" d="M119.8999,160.1001v39.7998H80.1001v-39.7998H119.8999 M120,160H80v40h40V160L120,160z"/>
	</g>
</g>
<g>
	<polygon fill="#FBF482" points="120,199.9502 120.0498,160 160,160.0498 159.9502,199.9502 	"/>
	<g>
		<path fill="#FBF482" d="M159.8999,160.1001v39.7998h-39.7998v-39.7998H159.8999 M160,160h-40v40h40V160L160,160z"/>
	</g>
</g>
<g>
	<polygon fill="#FFFFFF" points="160,199.9502 160.0498,160 200,160.0498 199.9502,199.9502 	"/>
	<g>
		<path fill="#FFFFFF" d="M199.8999,160.1001v39.7998h-39.7998v-39.7998H199.8999 M200,160h-40v40h40V160L200,160z"/>
	</g>
</g>
<g>
	<polygon fill="#FFFFFF" points="200,199.9502 200.0498,160 240,160.0498 239.9502,199.9502 	"/>
	<g>
		<path fill="#FFFFFF" d="M239.8999,160.1001v39.7998h-39.7998v-39.7998H239.8999 M240,160h-40v40h40V160L240,160z"/>
	</g>
</g>
<g>
	<rect x="240" y="160" fill="#FBC700" width="40" height="40"/>
</g>
<g>
	<polygon fill="#F79B00" points="280,199.9502 280.0498,160 320,160.0498 319.9502,199.9502 	"/>
	<g>
		<path fill="#F79B00" d="M319.9004,160.1001v39.7998h-39.8008v-39.7998H319.9004 M320,160h-40v40h40V160L320,160z"/>
	</g>
</g>
<g>
	<polygon fill="#F37304" points="320,199.9502 320.0498,160 360,160.0498 359.9502,199.9502 	"/>
	<g>
		<path fill="#F37304" d="M359.9004,160.1001v39.7998h-39.8008v-39.7998H359.9004 M360,160h-40v40h40V160L360,160z"/>
	</g>
</g>
<g>
	<polygon fill="#F34D0D" points="360,199.9502 360.0498,160 400,160.0498 399.9502,199.9502 	"/>
	<g>
		<path fill="#F34D0D" d="M399.9004,160.1001v39.7998h-39.8008v-39.7998H399.9004 M400,160h-40v40h40V160L400,160z"/>
	</g>
</g>
<g>
	<polygon fill="#F13319" points="400,199.9502 400.0498,160 440,160.0498 439.9502,199.9502 	"/>
	<g>
		<path fill="#F13319" d="M439.9004,160.1001v39.7998h-39.8008v-39.7998H439.9004 M440,160h-40v40h40V160L440,160z"/>
	</g>
</g>
<g>
	<polygon fill="#FDEB00" points="40,199.9502 40.0498,160 80,160.0498 79.9502,199.9502 	"/>
	<g>
		<path fill="#FDEB00" d="M79.8999,160.1001v39.7998H40.1001v-39.7998H79.8999 M80,160H40v40h40V160L80,160z"/>
	</g>
</g>
<g>
	<polygon fill="#FCD500" points="40,239.9502 40.0498,200 80,200.0498 79.9502,239.9502 	"/>
	<g>
		<path fill="#FCD500" d="M79.8999,200.1001v39.7998H40.1001v-39.7998H79.8999 M80,200H40v40h40V200L80,200z"/>
	</g>
</g>
<g>
	<polygon fill="#FDEB00" points="80,239.9502 80.0498,200 120,200.0498 119.9502,239.9502 	"/>
	<g>
		<path fill="#FDEB00" d="M119.8999,200.1001v39.7998H80.1001v-39.7998H119.8999 M120,200H80v40h40V200L120,200z"/>
	</g>
</g>
<g>
	<polygon fill="#FDEB00" points="120,239.9502 120.0498,200 160,200.0498 159.9502,239.9502 	"/>
	<g>
		<path fill="#FDEB00" d="M159.8999,200.1001v39.7998h-39.7998v-39.7998H159.8999 M160,200h-40v40h40V200L160,200z"/>
	</g>
</g>
<g>
	<polygon fill="#FDEB00" points="160,239.9502 160.0498,200 200,200.0498 199.9502,239.9502 	"/>
	<g>
		<path fill="#FDEB00" d="M199.8999,200.1001v39.7998h-39.7998v-39.7998H199.8999 M200,200h-40v40h40V200L200,200z"/>
	</g>
</g>
<g>
	<polygon fill="#FCD500" points="200,239.9502 200.0498,200 240,200.0498 239.9502,239.9502 	"/>
	<g>
		<path fill="#FCD500" d="M239.8999,200.1001v39.7998h-39.7998v-39.7998H239.8999 M240,200h-40v40h40V200L240,200z"/>
	</g>
</g>
<g>
	<polygon fill="#F7B100" points="240,239.9502 240.0498,200 280,200.0498 279.9502,239.9502 	"/>
	<g>
		<path fill="#F7B100" d="M279.9004,200.1001v39.7998h-39.8003v-39.7998H279.9004 M280,200h-40v40h40V200L280,200z"/>
	</g>
</g>
<g>
	<polygon fill="#F68900" points="280,239.9502 280.0498,200 320,200.0498 319.9502,239.9502 	"/>
	<g>
		<path fill="#F68900" d="M319.9004,200.1001v39.7998h-39.8008v-39.7998H319.9004 M320,200h-40v40h40V200L320,200z"/>
	</g>
</g>
<g>
	<polygon fill="#F26808" points="320,239.9502 320.0498,200 360,200.0498 359.9502,239.9502 	"/>
	<g>
		<path fill="#F26808" d="M359.9004,200.1001v39.7998h-39.8008v-39.7998H359.9004 M360,200h-40v40h40V200L360,200z"/>
	</g>
</g>
<g>
	<polygon fill="#F24011" points="360,239.9502 360.0498,200 400,200.0498 399.9502,239.9502 	"/>
	<g>
		<path fill="#F24011" d="M399.9004,200.1001v39.7998h-39.8008v-39.7998H399.9004 M400,200h-40v40h40V200L400,200z"/>
	</g>
</g>
<g>
	<polygon fill="#F0301A" points="400,239.9502 400.0498,200 440,200.0498 439.9502,239.9502 	"/>
	<g>
		<path fill="#F0301A" d="M439.9004,200.1001v39.7998h-39.8008v-39.7998H439.9004 M440,200h-40v40h40V200L440,200z"/>
	</g>
</g>
<g>
	<polygon fill="#F7B100" points="40,279.9502 40.0498,240 80,240.0498 79.9502,279.9502 	"/>
	<g>
		<path fill="#F7B100" d="M79.8999,240.1001v39.8003H40.1001v-39.8003H79.8999 M80,240H40v40h40V240L80,240z"/>
	</g>
</g>
<g>
	<polygon fill="#FBC700" points="80,279.9502 80.0498,240 120,240.0498 119.9502,279.9502 	"/>
	<g>
		<path fill="#FBC700" d="M119.8999,240.1001v39.8003H80.1001v-39.8003H119.8999 M120,240H80v40h40V240L120,240z"/>
	</g>
</g>
<g>
	<polygon fill="#FBCE00" points="120,279.9502 120.0498,240 160,240.0498 159.9502,279.9502 	"/>
	<g>
		<path fill="#FBCE00" d="M159.8999,240.1001v39.8003h-39.7998v-39.8003H159.8999 M160,240h-40v40h40V240L160,240z"/>
	</g>
</g>
<g>
	<polygon fill="#FBC700" points="160,279.9502 160.0498,240 200,240.0498 199.9502,279.9502 	"/>
	<g>
		<path fill="#FBC700" d="M199.8999,240.1001v39.8003h-39.7998v-39.8003H199.8999 M200,240h-40v40h40V240L200,240z"/>
	</g>
</g>
<g>
	<polygon fill="#F8B100" points="200,279.9502 200.0498,240 240,240.0498 239.9502,279.9502 	"/>
	<g>
		<path fill="#F8B100" d="M239.8999,240.1001v39.8003h-39.7998v-39.8003H239.8999 M240,240h-40v40h40V240L240,240z"/>
	</g>
</g>
<g>
	<polygon fill="#F79500" points="240,279.9502 240.0498,240 280,240.0498 279.9502,279.9502 	"/>
	<g>
		<path fill="#F79500" d="M279.9004,240.1001v39.8003h-39.8003v-39.8003H279.9004 M280,240h-40v40h40V240L280,240z"/>
	</g>
</g>
<g>
	<polygon fill="#F37500" points="280,279.9502 280.0498,240 320,240.0498 319.9502,279.9502 	"/>
	<g>
		<path fill="#F37500" d="M319.9004,240.1001v39.8003h-39.8008v-39.8003H319.9004 M320,240h-40v40h40V240L320,240z"/>
	</g>
</g>
<g>
	<polygon fill="#F35B0A" points="320,279.9502 320.0498,240 360,240.0498 359.9502,279.9502 	"/>
	<g>
		<path fill="#F35B0A" d="M359.9004,240.1001v39.8003h-39.8008v-39.8003H359.9004 M360,240h-40v40h40V240L360,240z"/>
	</g>
</g>
<g>
	<polygon fill="#F23817" points="360,279.9502 360.0498,240 400,240.0498 399.9502,279.9502 	"/>
	<g>
		<path fill="#F23817" d="M399.9004,240.1001v39.8003h-39.8008v-39.8003H399.9004 M400,240h-40v40h40V240L400,240z"/>
	</g>
</g>
<g>
	<polygon fill="#F03218" points="400,279.9502 400.0498,240 440,240.0498 439.9502,279.9502 	"/>
	<g>
		<path fill="#F03218" d="M439.9004,240.1001v39.8003h-39.8008v-39.8003H439.9004 M440,240h-40v40h40V240L440,240z"/>
	</g>
</g>
<g>
	<polygon fill="#F68A00" points="40,319.9502 40.0498,280 80,280.0498 79.9502,319.9502 	"/>
	<g>
		<path fill="#F68A00" d="M79.8999,280.0996v39.8008H40.1001v-39.8008H79.8999 M80,280H40v40h40V280L80,280z"/>
	</g>
</g>
<g>
	<polygon fill="#F89A00" points="80,319.9502 80.0498,280 120,280.0498 119.9502,319.9502 	"/>
	<g>
		<path fill="#F89A00" d="M119.8999,280.0996v39.8008H80.1001v-39.8008H119.8999 M120,280H80v40h40V280L120,280z"/>
	</g>
</g>
<g>
	<polygon fill="#F79F00" points="120,319.9502 120.0498,280 160,280.0498 159.9502,319.9502 	"/>
	<g>
		<path fill="#F79F00" d="M159.8999,280.0996v39.8008h-39.7998v-39.8008H159.8999 M160,280h-40v40h40V280L160,280z"/>
	</g>
</g>
<g>
	<polygon fill="#F68900" points="160,319.9502 160.0498,280 200,280.0498 199.9502,319.9502 	"/>
	<g>
		<path fill="#F68900" d="M199.8999,280.0996v39.8008h-39.7998v-39.8008H199.8999 M200,280h-40v40h40V280L200,280z"/>
	</g>
</g>
<g>
	<polygon fill="#F47500" points="200,319.9502 200.0498,280 240,280.0498 239.9502,319.9502 	"/>
	<g>
		<path fill="#F47500" d="M239.8999,280.0996v39.8008h-39.7998v-39.8008H239.8999 M240,280h-40v40h40V280L240,280z"/>
	</g>
</g>
<g>
	<polygon fill="#F2600A" points="240,319.9502 240.0498,280 280,280.0498 279.9502,319.9502 	"/>
	<g>
		<path fill="#F2600A" d="M279.9004,280.0996v39.8008h-39.8003v-39.8008H279.9004 M280,280h-40v40h40V280L280,280z"/>
	</g>
</g>
<g>
	<polygon fill="#F2600A" points="280,319.9502 280.0498,280 320,280.0498 319.9502,319.9502 	"/>
	<g>
		<path fill="#F2600A" d="M319.9004,280.0996v39.8008h-39.8008v-39.8008H319.9004 M320,280h-40v40h40V280L320,280z"/>
	</g>
</g>
<g>
	<polygon fill="#F13E12" points="320,319.9502 320.0498,280 360,280.0498 359.9502,319.9502 	"/>
	<g>
		<path fill="#F13E12" d="M359.9004,280.0996v39.8008h-39.8008v-39.8008H359.9004 M360,280h-40v40h40V280L360,280z"/>
	</g>
</g>
<g>
	<polygon fill="#F13419" points="360,319.9502 360.0498,280 400,280.0498 399.9502,319.9502 	"/>
	<g>
		<path fill="#F13419" d="M399.9004,280.0996v39.8008h-39.8008v-39.8008H399.9004 M400,280h-40v40h40V280L400,280z"/>
	</g>
</g>
<g>
	<polygon fill="#F13118" points="400,319.9502 400.0498,280 440,280.0498 439.9502,319.9502 	"/>
	<g>
		<path fill="#F13118" d="M439.9004,280.0996v39.8008h-39.8008v-39.8008H439.9004 M440,280h-40v40h40V280L440,280z"/>
	</g>
</g>
<g>
	<polygon fill="#F37204" points="80,359.9502 80.0498,320 120,320.0498 119.9502,359.9502 	"/>
	<g>
		<path fill="#F37204" d="M119.8999,320.0996v39.8008H80.1001v-39.8008H119.8999 M120,320H80v40h40V320L120,320z"/>
	</g>
</g>
<g>
	<polygon fill="#F37501" points="120,359.9502 120.0498,320 160,320.0498 159.9502,359.9502 	"/>
	<g>
		<path fill="#F37501" d="M159.8999,320.0996v39.8008h-39.7998v-39.8008H159.8999 M160,320h-40v40h40V320L160,320z"/>
	</g>
</g>
<g>
	<polygon fill="#F37204" points="160,359.9502 160.0498,320 200,320.0498 199.9502,359.9502 	"/>
	<g>
		<path fill="#F37204" d="M199.8999,320.0996v39.8008h-39.7998v-39.8008H199.8999 M200,320h-40v40h40V320L200,320z"/>
	</g>
</g>
<g>
	<polygon fill="#F16706" points="200,359.9502 200.0498,320 240,320.0498 239.9502,359.9502 	"/>
	<g>
		<path fill="#F16706" d="M239.8999,320.0996v39.8008h-39.7998v-39.8008H239.8999 M240,320h-40v40h40V320L240,320z"/>
	</g>
</g>
<g>
	<polygon fill="#F25A0B" points="240,359.9502 240.0498,320 280,320.0498 279.9502,359.9502 	"/>
	<g>
		<path fill="#F25A0B" d="M279.9004,320.0996v39.8008h-39.8003v-39.8008H279.9004 M280,320h-40v40h40V320L280,320z"/>
	</g>
</g>
<g>
	<polygon fill="#F13D12" points="280,359.9502 280.0498,320 320,320.0498 319.9502,359.9502 	"/>
	<g>
		<path fill="#F13D12" d="M319.9004,320.0996v39.8008h-39.8008v-39.8008H319.9004 M320,320h-40v40h40V320L320,320z"/>
	</g>
</g>
<g>
	<polygon fill="#F03418" points="320,359.9502 320.0498,320 360,320.0498 359.9502,359.9502 	"/>
	<g>
		<path fill="#F03418" d="M359.9004,320.0996v39.8008h-39.8008v-39.8008H359.9004 M360,320h-40v40h40V320L360,320z"/>
	</g>
</g>
<g>
	<polygon fill="#F13319" points="360,359.9502 360.0498,320 400,320.0498 399.9502,359.9502 	"/>
	<g>
		<path fill="#F13319" d="M399.9004,320.0996v39.8008h-39.8008v-39.8008H399.9004 M400,320h-40v40h40V320L400,320z"/>
	</g>
</g>
<g>
	<polygon fill="#F24C10" points="80,399.9502 80.0498,360 120,360.0498 119.9502,399.9502 	"/>
	<g>
		<path fill="#F24C10" d="M119.8999,360.0996v39.8008H80.1001v-39.8008H119.8999 M120,360H80v40h40V360L120,360z"/>
	</g>
</g>
<g>
	<polygon fill="#F3530F" points="120,399.9502 120.0498,360 160,360.0498 159.9502,399.9502 	"/>
	<g>
		<path fill="#F3530F" d="M159.8999,360.0996v39.8008h-39.7998v-39.8008H159.8999 M160,360h-40v40h40V360L160,360z"/>
	</g>
</g>
<g>
	<polygon fill="#F3530F" points="160,399.9502 160.0498,360 200,360.0498 199.9502,399.9502 	"/>
	<g>
		<path fill="#F3530F" d="M199.8999,360.0996v39.8008h-39.7998v-39.8008H199.8999 M200,360h-40v40h40V360L200,360z"/>
	</g>
</g>
<g>
	<polygon fill="#F24013" points="200,399.9502 200.0498,360 240,360.0498 239.9502,399.9502 	"/>
	<g>
		<path fill="#F24013" d="M239.8999,360.0996v39.8008h-39.7998v-39.8008H239.8999 M240,360h-40v40h40V360L240,360z"/>
	</g>
</g>
<g>
	<polygon fill="#F23817" points="240,399.9502 240.0498,360 280,360.0498 279.9502,399.9502 	"/>
	<g>
		<path fill="#F23817" d="M279.9004,360.0996v39.8008h-39.8003v-39.8008H279.9004 M280,360h-40v40h40V360L280,360z"/>
	</g>
</g>
<g>
	<polygon fill="#F03318" points="280,399.9502 280.0498,360 320,360.0498 319.9502,399.9502 	"/>
	<g>
		<path fill="#F03318" d="M319.9004,360.0996v39.8008h-39.8008v-39.8008H319.9004 M320,360h-40v40h40V360L320,360z"/>
	</g>
</g>
<g>
	<polygon fill="#F03418" points="160,439.9502 160.0498,400 200,400.0498 199.9502,439.9502 	"/>
	<g>
		<path fill="#F03418" d="M199.8999,400.0996v39.8008h-39.7998v-39.8008H199.8999 M200,400h-40v40h40V400L200,400z"/>
	</g>
</g>
<g>
	<polygon fill="#F03418" points="200,439.9502 200.0498,400 240,400.0498 239.9502,439.9502 	"/>
	<g>
		<path fill="#F03418" d="M239.8999,400.0996v39.8008h-39.7998v-39.8008H239.8999 M240,400h-40v40h40V400L240,400z"/>
	</g>
</g>
<g>
	<polygon fill="#F0311A" points="240,439.9502 240.0498,400 280,400.0498 279.9502,439.9502 	"/>
	<g>
		<path fill="#F0311A" d="M279.9004,400.0996v39.8008h-39.8003v-39.8008H279.9004 M280,400h-40v40h40V400L280,400z"/>
	</g>
</g>
<g>
	<polygon fill="#F0301A" points="280,439.9502 280.0498,400 320,400.0498 319.9502,439.9502 	"/>
	<g>
		<path fill="#F0301A" d="M319.9004,400.0996v39.8008h-39.8008v-39.8008H319.9004 M320,400h-40v40h40V400L320,400z"/>
	</g>
</g>
<g>
	<polygon fill="#F13118" points="320,399.9502 320.0498,360 360,360.0498 359.9502,399.9502 	"/>
	<g>
		<path fill="#F13118" d="M359.9004,360.0996v39.8008h-39.8008v-39.8008H359.9004 M360,360h-40v40h40V360L360,360z"/>
	</g>
</g>
<g>
	<polygon fill="#F03318" points="360,399.9502 360.0498,360 400,360.0498 399.9502,399.9502 	"/>
	<g>
		<path fill="#F03318" d="M399.9004,360.0996v39.8008h-39.8008v-39.8008H399.9004 M400,360h-40v40h40V360L400,360z"/>
	</g>
</g>
<g>
	<polygon fill="#FFFFFF" points="200,159.9502 200.0498,120 240,120.0498 239.9502,159.9502 	"/>
	<g>
		<path fill="#FFFFFF" d="M239.8999,120.1001v39.7998h-39.7998v-39.7998H239.8999 M240,120h-40v40h40V120L240,120z"/>
	</g>
</g>
<g>
	<polygon fill="#FBCE00" points="240,159.9502 240.0498,120 280,120.0498 279.9502,159.9502 	"/>
	<g>
		<path fill="#FBCE00" d="M279.9004,120.1001v39.7998h-39.8003v-39.7998H279.9004 M280,120h-40v40h40V120L280,120z"/>
	</g>
</g>
<g>
	<polygon fill="#F79F00" points="280,159.9502 280.0498,120 320,120.0498 319.9502,159.9502 	"/>
	<g>
		<path fill="#F79F00" d="M319.9004,120.1001v39.7998h-39.8008v-39.7998H319.9004 M320,120h-40v40h40V120L320,120z"/>
	</g>
</g>
<g>
	<polygon fill="#F37501" points="320,159.9502 320.0498,120 360,120.0498 359.9502,159.9502 	"/>
	<g>
		<path fill="#F37501" d="M359.9004,120.1001v39.7998h-39.8008v-39.7998H359.9004 M360,120h-40v40h40V120L360,120z"/>
	</g>
</g>
<g>
	<polygon fill="#F4540C" points="360,159.9502 360.0498,120 400,120.0498 399.9502,159.9502 	"/>
	<g>
		<path fill="#F4540C" d="M399.9004,120.1001v39.7998h-39.8008v-39.7998H399.9004 M400,120h-40v40h40V120L400,120z"/>
	</g>
</g>
<g>
	<polygon fill="#FCD600" points="200,79.9502 200.0498,40 240,40.0498 239.9502,79.9502 	"/>
	<g>
		<path fill="#FCD600" d="M239.8999,40.1001v39.7998h-39.7998V40.1001H239.8999 M240,40h-40v40h40V40L240,40z"/>
	</g>
</g>
<g>
	<polygon fill="#F7B100" points="240,79.9502 240.0498,40 280,40.0498 279.9502,79.9502 	"/>
	<g>
		<path fill="#F7B100" d="M279.9004,40.1001v39.7998h-39.8003V40.1001H279.9004 M280,40h-40v40h40V40L280,40z"/>
	</g>
</g>
<g>
	<polygon fill="#F68A00" points="280,79.9502 280.0498,40 320,40.0498 319.9502,79.9502 	"/>
	<g>
		<path fill="#F68A00" d="M319.9004,40.1001v39.7998h-39.8008V40.1001H319.9004 M320,40h-40v40h40V40L320,40z"/>
	</g>
</g>
<g>
	<rect x="321.6162" y="401.6162" fill="#231F20" width="76.7676" height="36.7676"/>
	<path fill="#231F20" d="M396.7676,403.2324v33.5352h-73.5352v-33.5352H396.7676 M400,400h-80v40h80V400L400,400z"/>
</g>
<g>
	<rect x="321.6162" y="41.6162" fill="#231F20" width="76.7676" height="36.7676"/>
	<path fill="#231F20" d="M396.7676,43.2324v33.5352h-73.5352V43.2324H396.7676 M400,40h-80v40h80V40L400,40z"/>
</g>
<g>
	<rect x="442.2852" y="162.2856" fill="#231F20" width="35.4297" height="155.4282"/>
	<path fill="#231F20" d="M475.4287,164.5713v150.8574h-30.8574V164.5713H475.4287 M480,160h-40v160h40V160L480,160z"/>
</g>
<g>
	<rect x="140.1006" y="100.1001" width="79.7998" height="79.7998"/>
	<g>
		<path d="M219.8003,100.2002v79.5996h-79.5996v-79.5996H219.8003 M220.0005,100h-80v80h80V100L220.0005,100z"/>
	</g>
</g>
<g>
	<rect x="120.1006" y="80.1001" fill="#FDEA00" width="79.7998" height="79.7998"/>
	<g>
		<path fill="#FDEA00" d="M199.8003,80.2002v79.5996h-79.5996V80.2002H199.8003 M200.0005,80h-80v80h80V80L200.0005,80z"/>
	</g>
</g>
<g>
	<polygon fill="#FAF6A8" points="120,119.9502 120.0498,80 160,80.0498 159.9502,119.9502 	"/>
	<g>
		<path fill="#FAF6A8" d="M159.8999,80.1001v39.7998h-39.7998V80.1001H159.8999 M160,80h-40v40h40V80L160,80z"/>
	</g>
</g>
<g>
	<polygon fill="#F9F070" points="120,159.9502 120.0498,120 160,120.0498 159.9502,159.9502 	"/>
	<g>
		<path fill="#F9F070" d="M159.8999,120.1001v39.7998h-39.7998v-39.7998H159.8999 M160,120h-40v40h40V120L160,120z"/>
	</g>
</g>
<g>
	<polygon fill="#FEEA00" points="160,159.9502 160.0498,120 200,120.0498 199.9502,159.9502 	"/>
	<g>
		<path fill="#FEEA00" d="M199.8999,120.1001v39.7998h-39.7998v-39.7998H199.8999 M200,120h-40v40h40V120L200,120z"/>
	</g>
</g>
</svg>
